<svg width="265" height="20" viewBox="0 0 265 20" fill="none" xmlns="http://www.w3.org/2000/svg">
<g style="mix-blend-mode:darken" filter="url(#filter0_i_1_2)">
<path d="M2.67581 0.951999V16H0.635807V0.951999H2.67581ZM10.3442 16H8.37618V4.144H10.1762L10.2722 5.056H10.3442C11.0482 4.656 11.6882 4.368 12.2642 4.192C12.8402 4 13.4162 3.904 13.9922 3.904C14.6642 3.904 15.2402 4.008 15.7202 4.216C16.2002 4.424 16.5762 4.736 16.8482 5.152H16.9202C17.5602 4.752 18.2322 4.448 18.9362 4.24C19.6562 4.016 20.3762 3.904 21.0962 3.904C22.2322 3.904 23.0882 4.208 23.6642 4.816C24.2562 5.408 24.5522 6.288 24.5522 7.456V16H22.5842V7.696C22.5842 7.008 22.4002 6.504 22.0322 6.184C21.6642 5.848 21.0802 5.68 20.2802 5.68C19.8322 5.68 19.3602 5.752 18.8642 5.896C18.3682 6.024 17.8722 6.216 17.3762 6.472C17.4082 6.632 17.4242 6.792 17.4242 6.952C17.4402 7.112 17.4482 7.28 17.4482 7.456V16H15.4802V7.696C15.4802 7.008 15.2962 6.504 14.9282 6.184C14.5602 5.848 13.9762 5.68 13.1762 5.68C12.7762 5.68 12.3522 5.752 11.9042 5.896C11.4562 6.024 10.9362 6.248 10.3442 6.568V16ZM32.7064 16.192C31.4904 16.192 30.5944 15.904 30.0184 15.328C29.4584 14.736 29.1784 13.808 29.1784 12.544C29.1784 11.264 29.5224 10.36 30.2104 9.832C30.8984 9.288 32.0664 9.016 33.7144 9.016C34.2584 9.016 34.7944 9.04 35.3224 9.088C35.8504 9.136 36.3464 9.208 36.8104 9.304V8.152C36.8104 7.272 36.5864 6.64 36.1384 6.256C35.6904 5.872 34.9704 5.68 33.9784 5.68C33.2424 5.68 32.5944 5.712 32.0344 5.776C31.4744 5.824 30.9144 5.912 30.3544 6.04V4.336C30.9944 4.176 31.6424 4.064 32.2984 4C32.9704 3.936 33.7304 3.904 34.5784 3.904C36.0024 3.904 37.0584 4.24 37.7464 4.912C38.4344 5.568 38.7784 6.592 38.7784 7.984V16H36.9784L36.8824 14.896H36.8344C36.3544 15.28 35.7304 15.592 34.9624 15.832C34.2104 16.072 33.4584 16.192 32.7064 16.192ZM33.9304 10.624C32.8424 10.624 32.0824 10.76 31.6504 11.032C31.2344 11.288 31.0264 11.752 31.0264 12.424C31.0264 13.128 31.2024 13.64 31.5544 13.96C31.9064 14.264 32.4824 14.416 33.2824 14.416C33.9064 14.416 34.5464 14.32 35.2024 14.128C35.8584 13.936 36.3944 13.696 36.8104 13.408V10.864C36.2824 10.784 35.7864 10.728 35.3224 10.696C34.8744 10.648 34.4104 10.624 33.9304 10.624ZM49.0783 19.888C48.2783 19.888 47.5263 19.832 46.8223 19.72C46.1343 19.624 45.5663 19.488 45.1183 19.312V17.56C45.4863 17.704 46.0223 17.824 46.7263 17.92C47.4463 18.016 48.1583 18.064 48.8623 18.064C50.0623 18.064 50.8943 17.824 51.3583 17.344C51.8223 16.88 52.0543 16.048 52.0543 14.848V14.104C51.4623 14.456 50.8303 14.728 50.1583 14.92C49.4863 15.096 48.8063 15.184 48.1183 15.184C46.5343 15.184 45.3983 14.744 44.7103 13.864C44.0383 12.984 43.7023 11.544 43.7023 9.544C43.7023 7.512 44.1343 6.064 44.9983 5.2C45.8783 4.336 47.3663 3.904 49.4623 3.904C50.2143 3.904 51.0223 3.952 51.8863 4.048C52.7503 4.128 53.4623 4.232 54.0223 4.36V14.296C54.0223 16.376 53.6543 17.824 52.9183 18.64C52.1823 19.472 50.9023 19.888 49.0783 19.888ZM49.4623 5.68C47.9263 5.68 46.9103 5.944 46.4143 6.472C45.9183 7 45.6703 8.024 45.6703 9.544C45.6703 10.984 45.8783 11.984 46.2943 12.544C46.7263 13.088 47.5503 13.36 48.7663 13.36C49.2943 13.36 49.8383 13.288 50.3983 13.144C50.9743 12.984 51.5263 12.768 52.0543 12.496V5.944C51.6703 5.864 51.2543 5.8 50.8063 5.752C50.3743 5.704 49.9263 5.68 49.4623 5.68ZM68.4724 13.696V15.352C68.0564 15.576 67.4404 15.776 66.6244 15.952C65.8244 16.112 65.0084 16.192 64.1764 16.192C62.3204 16.192 60.9924 15.712 60.1924 14.752C59.3924 13.792 58.9924 12.208 58.9924 10C58.9924 7.872 59.4084 6.328 60.2404 5.368C61.0724 4.392 62.4004 3.904 64.2244 3.904C65.9204 3.904 67.1364 4.288 67.8724 5.056C68.6084 5.808 68.9764 7.072 68.9764 8.848C68.9764 9.168 68.9684 9.464 68.9524 9.736C68.9364 10.008 68.9044 10.336 68.8564 10.72H60.9844C61.0004 12.032 61.2644 12.968 61.7764 13.528C62.3044 14.088 63.2084 14.368 64.4884 14.368C65.1764 14.368 65.8964 14.304 66.6484 14.176C67.4004 14.048 68.0084 13.888 68.4724 13.696ZM67.1764 8.584C67.1604 7.528 66.9284 6.784 66.4804 6.352C66.0324 5.904 65.2804 5.68 64.2244 5.68C63.0404 5.68 62.2004 5.936 61.7044 6.448C61.2244 6.944 60.9844 7.824 60.9844 9.088H67.1524C67.1524 9.056 67.1524 8.984 67.1524 8.872C67.1684 8.744 67.1764 8.648 67.1764 8.584ZM222.332 16H220.172L226.124 0.951999H228.236L234.116 16H231.956L230.588 12.376H223.7L222.332 16ZM227.132 2.824C226.972 3.384 226.78 3.976 226.556 4.6C226.348 5.224 226.132 5.848 225.908 6.472L224.372 10.576H229.916L228.38 6.472C228.06 5.592 227.804 4.88 227.612 4.336C227.436 3.792 227.276 3.288 227.132 2.824ZM240.275 19.648H238.307V4.144H240.011L240.131 5.2H240.203C240.699 4.784 241.291 4.464 241.979 4.24C242.667 4.016 243.403 3.904 244.187 3.904C245.803 3.904 246.955 4.384 247.643 5.344C248.347 6.304 248.699 7.872 248.699 10.048C248.699 12.224 248.275 13.792 247.427 14.752C246.579 15.712 245.163 16.192 243.179 16.192C242.587 16.192 242.043 16.152 241.547 16.072C241.067 15.992 240.643 15.872 240.275 15.712V19.648ZM246.731 10.048C246.731 8.416 246.499 7.28 246.035 6.64C245.587 6 244.739 5.68 243.491 5.68C242.899 5.68 242.331 5.768 241.787 5.944C241.259 6.104 240.755 6.344 240.275 6.664V13.888C240.675 14.048 241.083 14.168 241.499 14.248C241.931 14.328 242.411 14.368 242.939 14.368C244.427 14.368 245.427 14.064 245.939 13.456C246.467 12.832 246.731 11.696 246.731 10.048ZM255.66 19.648H253.692V4.144H255.396L255.516 5.2H255.588C256.084 4.784 256.676 4.464 257.364 4.24C258.052 4.016 258.788 3.904 259.572 3.904C261.188 3.904 262.34 4.384 263.028 5.344C263.732 6.304 264.084 7.872 264.084 10.048C264.084 12.224 263.66 13.792 262.812 14.752C261.964 15.712 260.548 16.192 258.564 16.192C257.972 16.192 257.428 16.152 256.932 16.072C256.452 15.992 256.028 15.872 255.66 15.712V19.648ZM262.116 10.048C262.116 8.416 261.884 7.28 261.42 6.64C260.972 6 260.124 5.68 258.876 5.68C258.284 5.68 257.716 5.768 257.172 5.944C256.644 6.104 256.14 6.344 255.66 6.664V13.888C256.06 14.048 256.468 14.168 256.884 14.248C257.316 14.328 257.796 14.368 258.324 14.368C259.812 14.368 260.812 14.064 261.324 13.456C261.852 12.832 262.116 11.696 262.116 10.048Z" fill="#222222"/>
<path d="M76.6575 10.864V16H73.7775V0.951999H79.0815C81.3055 0.951999 82.8895 1.328 83.8335 2.08C84.7935 2.832 85.2735 4.088 85.2735 5.848C85.2735 7.112 84.9935 8.136 84.4335 8.92C83.8895 9.688 83.0575 10.224 81.9375 10.528L85.7295 16H82.2735L78.8895 10.864L76.6575 10.864ZM82.3455 5.848C82.3455 5.016 82.0975 4.424 81.6015 4.072C81.1215 3.72 80.2815 3.544 79.0815 3.544H76.6575V8.464L79.0815 8.464C80.2815 8.464 81.1215 8.264 81.6015 7.864C82.0975 7.464 82.3455 6.792 82.3455 5.848ZM99.0347 13.096V15.352C98.6347 15.592 98.0027 15.8 97.1387 15.976C96.2907 16.136 95.4027 16.216 94.4747 16.216C92.5867 16.216 91.2267 15.736 90.3947 14.776C89.5787 13.816 89.1707 12.232 89.1707 10.024C89.1707 7.896 89.6027 6.344 90.4667 5.368C91.3307 4.392 92.6987 3.904 94.5707 3.904C96.3787 3.904 97.6587 4.28 98.4107 5.032C99.1627 5.784 99.5387 7.072 99.5387 8.896C99.5387 9.232 99.5307 9.544 99.5147 9.832C99.4987 10.104 99.4667 10.488 99.4187 10.984H91.9787C91.9947 11.976 92.2107 12.672 92.6267 13.072C93.0587 13.472 93.8187 13.672 94.9067 13.672C95.6267 13.672 96.3707 13.616 97.1387 13.504C97.9067 13.392 98.5387 13.256 99.0347 13.096ZM94.5707 6.328C93.5947 6.328 92.9147 6.52 92.5307 6.904C92.1627 7.288 91.9787 7.984 91.9787 8.992H96.9947V8.488C96.9787 7.672 96.7947 7.112 96.4427 6.808C96.0907 6.488 95.4667 6.328 94.5707 6.328ZM112.595 13V15.328C112.179 15.568 111.555 15.776 110.723 15.952C109.907 16.128 109.059 16.216 108.179 16.216C106.483 16.216 105.291 15.76 104.603 14.848C103.915 13.936 103.571 12.336 103.571 10.048C103.571 7.792 104.011 6.208 104.891 5.296C105.787 4.368 107.323 3.904 109.499 3.904C110.027 3.904 110.499 3.92 110.915 3.952C111.347 3.968 111.803 4.008 112.283 4.072V6.544C111.659 6.496 111.115 6.464 110.651 6.448C110.187 6.416 109.803 6.4 109.499 6.4C108.187 6.4 107.331 6.632 106.931 7.096C106.547 7.56 106.355 8.544 106.355 10.048C106.355 11.504 106.507 12.464 106.811 12.928C107.131 13.392 107.787 13.624 108.779 13.624C109.435 13.624 110.107 13.568 110.795 13.456C111.499 13.328 112.099 13.176 112.595 13ZM127.635 10.048C127.635 12.288 127.203 13.88 126.339 14.824C125.491 15.752 124.035 16.216 121.971 16.216C119.875 16.216 118.403 15.76 117.555 14.848C116.707 13.92 116.283 12.32 116.283 10.048C116.283 7.824 116.715 6.248 117.579 5.32C118.443 4.376 119.907 3.904 121.971 3.904C124.051 3.904 125.515 4.368 126.363 5.296C127.211 6.208 127.635 7.792 127.635 10.048ZM119.067 10.024C119.067 11.496 119.251 12.464 119.619 12.928C119.987 13.392 120.771 13.624 121.971 13.624C123.139 13.624 123.907 13.392 124.275 12.928C124.659 12.448 124.851 11.48 124.851 10.024C124.851 8.536 124.667 7.56 124.299 7.096C123.947 6.632 123.171 6.4 121.971 6.4C120.787 6.4 120.003 6.64 119.619 7.12C119.251 7.6 119.067 8.568 119.067 10.024ZM137.26 19.888C136.428 19.888 135.636 19.832 134.884 19.72C134.148 19.624 133.556 19.488 133.108 19.312V16.912C133.476 17.04 134.028 17.144 134.764 17.224C135.516 17.32 136.26 17.368 136.996 17.368C138.02 17.368 138.724 17.184 139.108 16.816C139.508 16.448 139.716 15.792 139.732 14.848V14.176C139.14 14.496 138.524 14.744 137.884 14.92C137.244 15.096 136.612 15.184 135.988 15.184C134.436 15.184 133.332 14.752 132.676 13.888C132.02 13.024 131.692 11.576 131.692 9.544C131.692 7.512 132.132 6.064 133.012 5.2C133.908 4.336 135.412 3.904 137.524 3.904C138.34 3.904 139.236 3.952 140.212 4.048C141.204 4.144 141.972 4.248 142.516 4.36V14.008C142.516 16.184 142.124 17.704 141.34 18.568C140.556 19.448 139.196 19.888 137.26 19.888ZM137.524 6.4C136.228 6.4 135.396 6.6 135.028 7C134.66 7.384 134.476 8.232 134.476 9.544C134.476 10.76 134.628 11.576 134.932 11.992C135.252 12.392 135.916 12.592 136.924 12.592C137.356 12.592 137.812 12.544 138.292 12.448C138.788 12.336 139.268 12.192 139.732 12.016V6.616C139.396 6.552 139.036 6.504 138.652 6.472C138.284 6.424 137.908 6.4 137.524 6.4ZM150.316 16H147.532V4.144H149.932L150.052 5.344H150.124C150.684 4.848 151.284 4.488 151.924 4.264C152.58 4.024 153.348 3.904 154.228 3.904C155.54 3.904 156.54 4.232 157.228 4.888C157.916 5.544 158.26 6.512 158.26 7.792V16H155.476V8.152C155.476 7.576 155.284 7.144 154.9 6.856C154.532 6.552 153.98 6.4 153.244 6.4C152.716 6.4 152.204 6.472 151.708 6.616C151.212 6.744 150.748 6.944 150.316 7.216V16ZM166.078 2.464H163.126V0.0399995H166.078V2.464ZM166.006 16H163.222V4.144H166.006V16ZM178.428 13.408V15.784C178.156 15.896 177.772 15.992 177.276 16.072C176.796 16.168 176.356 16.216 175.956 16.216C174.436 16.216 173.348 15.888 172.692 15.232C172.036 14.56 171.708 13.448 171.708 11.896V6.472H170.124V4.144H171.78L172.164 1.312H174.492V4.144H178.284V6.472H174.492V11.8C174.492 12.504 174.644 12.984 174.948 13.24C175.252 13.496 175.796 13.624 176.58 13.624C176.852 13.624 177.172 13.608 177.54 13.576C177.908 13.528 178.204 13.472 178.428 13.408ZM185.292 2.464H182.34V0.0399995H185.292V2.464ZM185.22 16H182.436V4.144H185.22V16ZM201.074 10.048C201.074 12.288 200.642 13.88 199.778 14.824C198.93 15.752 197.474 16.216 195.41 16.216C193.314 16.216 191.842 15.76 190.994 14.848C190.146 13.92 189.722 12.32 189.722 10.048C189.722 7.824 190.154 6.248 191.018 5.32C191.882 4.376 193.346 3.904 195.41 3.904C197.49 3.904 198.954 4.368 199.802 5.296C200.65 6.208 201.074 7.792 201.074 10.048ZM192.506 10.024C192.506 11.496 192.69 12.464 193.058 12.928C193.426 13.392 194.21 13.624 195.41 13.624C196.578 13.624 197.346 13.392 197.714 12.928C198.098 12.448 198.29 11.48 198.29 10.024C198.29 8.536 198.106 7.56 197.738 7.096C197.386 6.632 196.61 6.4 195.41 6.4C194.226 6.4 193.442 6.64 193.058 7.12C192.69 7.6 192.506 8.568 192.506 10.024ZM208.395 16H205.611V4.144H208.011L208.131 5.344H208.203C208.763 4.848 209.363 4.488 210.003 4.264C210.659 4.024 211.427 3.904 212.307 3.904C213.619 3.904 214.619 4.232 215.307 4.888C215.995 5.544 216.339 6.512 216.339 7.792V16H213.555V8.152C213.555 7.576 213.363 7.144 212.979 6.856C212.611 6.552 212.059 6.4 211.323 6.4C210.795 6.4 210.283 6.472 209.787 6.616C209.291 6.744 208.827 6.944 208.395 7.216V16Z" fill="#476A2E"/>
</g>
<defs>
<filter id="filter0_i_1_2" x="0.635803" y="0.0400391" width="263.448" height="23.8479" filterUnits="userSpaceOnUse" color-interpolation-filters="sRGB">
<feFlood flood-opacity="0" result="BackgroundImageFix"/>
<feBlend mode="normal" in="SourceGraphic" in2="BackgroundImageFix" result="shape"/>
<feColorMatrix in="SourceAlpha" type="matrix" values="0 0 0 0 0 0 0 0 0 0 0 0 0 0 0 0 0 0 127 0" result="hardAlpha"/>
<feOffset dy="4"/>
<feGaussianBlur stdDeviation="2"/>
<feComposite in2="hardAlpha" operator="arithmetic" k2="-1" k3="1"/>
<feColorMatrix type="matrix" values="0 0 0 0 0 0 0 0 0 0 0 0 0 0 0 0 0 0 0.25 0"/>
<feBlend mode="normal" in2="shape" result="effect1_innerShadow_1_2"/>
</filter>
</defs>
</svg>
