<svg width="218" height="31" viewBox="0 0 218 31" fill="none" xmlns="http://www.w3.org/2000/svg">
<g style="mix-blend-mode:darken" filter="url(#filter0_d_1_2)">
<path d="M10.6004 18.336C9.30437 18.336 8.16037 18.104 7.16837 17.64C6.17637 17.176 5.40037 16.512 4.84037 15.648C4.28037 14.784 4.00037 13.744 4.00037 12.528V11.856H7.12037V12.528C7.12037 13.536 7.43237 14.296 8.05637 14.808C8.68037 15.304 9.52837 15.552 10.6004 15.552C11.6884 15.552 12.4964 15.336 13.0244 14.904C13.5684 14.472 13.8404 13.92 13.8404 13.248C13.8404 12.784 13.7044 12.408 13.4324 12.12C13.1764 11.832 12.7924 11.6 12.2804 11.424C11.7844 11.232 11.1764 11.056 10.4564 10.896L9.90437 10.776C8.75237 10.52 7.76037 10.2 6.92837 9.816C6.11237 9.416 5.48037 8.896 5.03237 8.256C4.60037 7.616 4.38437 6.784 4.38437 5.76C4.38437 4.736 4.62437 3.864 5.10437 3.144C5.60037 2.408 6.28837 1.848 7.16837 1.464C8.06437 1.064 9.11237 0.863999 10.3124 0.863999C11.5124 0.863999 12.5764 1.072 13.5044 1.488C14.4484 1.888 15.1844 2.496 15.7124 3.312C16.2564 4.112 16.5284 5.12 16.5284 6.336V7.056H13.4084V6.336C13.4084 5.696 13.2804 5.184 13.0244 4.8C12.7844 4.4 12.4324 4.112 11.9684 3.936C11.5044 3.744 10.9524 3.648 10.3124 3.648C9.35237 3.648 8.64037 3.832 8.17637 4.2C7.72837 4.552 7.50437 5.04 7.50437 5.664C7.50437 6.08 7.60837 6.432 7.81637 6.72C8.04037 7.008 8.36837 7.248 8.80037 7.44C9.23237 7.632 9.78437 7.8 10.4564 7.944L11.0084 8.064C12.2084 8.32 13.2484 8.648 14.1284 9.048C15.0244 9.448 15.7204 9.976 16.2164 10.632C16.7124 11.288 16.9604 12.128 16.9604 13.152C16.9604 14.176 16.6964 15.08 16.1684 15.864C15.6564 16.632 14.9204 17.24 13.9604 17.688C13.0164 18.12 11.8964 18.336 10.6004 18.336ZM21.8191 18V6.096H24.8431V18H21.8191ZM23.3311 4.704C22.7871 4.704 22.3231 4.528 21.9391 4.176C21.5711 3.824 21.3871 3.36 21.3871 2.784C21.3871 2.208 21.5711 1.744 21.9391 1.392C22.3231 1.04 22.7871 0.863999 23.3311 0.863999C23.8911 0.863999 24.3551 1.04 24.7231 1.392C25.0911 1.744 25.2751 2.208 25.2751 2.784C25.2751 3.36 25.0911 3.824 24.7231 4.176C24.3551 4.528 23.8911 4.704 23.3311 4.704ZM35.3941 18.336C34.4501 18.336 33.5621 18.104 32.7301 17.64C31.9141 17.16 31.2581 16.464 30.7621 15.552C30.2661 14.64 30.0181 13.536 30.0181 12.24V11.856C30.0181 10.56 30.2661 9.456 30.7621 8.544C31.2581 7.632 31.9141 6.944 32.7301 6.48C33.5461 6 34.4341 5.76 35.3941 5.76C36.1141 5.76 36.7141 5.848 37.1941 6.024C37.6901 6.184 38.0901 6.392 38.3941 6.648C38.6981 6.904 38.9301 7.176 39.0901 7.464H39.5221V1.2H42.5461V18H39.5701V16.56H39.1381C38.8661 17.008 38.4421 17.416 37.8661 17.784C37.3061 18.152 36.4821 18.336 35.3941 18.336ZM36.3061 15.696C37.2341 15.696 38.0101 15.4 38.6341 14.808C39.2581 14.2 39.5701 13.32 39.5701 12.168V11.928C39.5701 10.776 39.2581 9.904 38.6341 9.312C38.0261 8.704 37.2501 8.4 36.3061 8.4C35.3781 8.4 34.6021 8.704 33.9781 9.312C33.3541 9.904 33.0421 10.776 33.0421 11.928V12.168C33.0421 13.32 33.3541 14.2 33.9781 14.808C34.6021 15.4 35.3781 15.696 36.3061 15.696ZM53.7227 18.336C52.5387 18.336 51.4907 18.088 50.5787 17.592C49.6827 17.08 48.9787 16.368 48.4667 15.456C47.9707 14.528 47.7227 13.44 47.7227 12.192V11.904C47.7227 10.656 47.9707 9.576 48.4667 8.664C48.9627 7.736 49.6587 7.024 50.5547 6.528C51.4507 6.016 52.4907 5.76 53.6747 5.76C54.8427 5.76 55.8587 6.024 56.7227 6.552C57.5867 7.064 58.2587 7.784 58.7387 8.712C59.2187 9.624 59.4587 10.688 59.4587 11.904V12.936L50.7947 12.936C50.8267 13.752 51.1307 14.416 51.7067 14.928C52.2827 15.44 52.9867 15.696 53.8187 15.696C54.6667 15.696 55.2907 15.512 55.6907 15.144C56.0907 14.776 56.3947 14.368 56.6027 13.92L59.0747 15.216C58.8507 15.632 58.5227 16.088 58.0907 16.584C57.6747 17.064 57.1147 17.48 56.4107 17.832C55.7067 18.168 54.8107 18.336 53.7227 18.336ZM50.8187 10.68H56.3867C56.3227 9.992 56.0427 9.44 55.5467 9.024C55.0667 8.608 54.4347 8.4 53.6507 8.4C52.8347 8.4 52.1867 8.608 51.7067 9.024C51.2267 9.44 50.9307 9.992 50.8187 10.68ZM71.7023 18.336C70.6303 18.336 69.8063 18.152 69.2303 17.784C68.6543 17.416 68.2303 17.008 67.9583 16.56H67.5263V18H64.5503V1.2H67.5743V7.464H68.0063C68.1823 7.176 68.4143 6.904 68.7023 6.648C69.0063 6.392 69.3983 6.184 69.8783 6.024C70.3743 5.848 70.9823 5.76 71.7023 5.76C72.6623 5.76 73.5503 6 74.3663 6.48C75.1823 6.944 75.8383 7.632 76.3343 8.544C76.8303 9.456 77.0783 10.56 77.0783 11.856V12.24C77.0783 13.536 76.8303 14.64 76.3343 15.552C75.8383 16.464 75.1823 17.16 74.3663 17.64C73.5503 18.104 72.6623 18.336 71.7023 18.336ZM70.7903 15.696C71.7183 15.696 72.4943 15.4 73.1183 14.808C73.7423 14.2 74.0543 13.32 74.0543 12.168V11.928C74.0543 10.776 73.7423 9.904 73.1183 9.312C72.5103 8.704 71.7343 8.4 70.7903 8.4C69.8623 8.4 69.0863 8.704 68.4623 9.312C67.8383 9.904 67.5263 10.776 67.5263 11.928V12.168C67.5263 13.32 67.8383 14.2 68.4623 14.808C69.0863 15.4 69.8623 15.696 70.7903 15.696ZM85.951 18.336C85.103 18.336 84.343 18.192 83.671 17.904C82.999 17.6 82.463 17.168 82.063 16.608C81.679 16.032 81.487 15.336 81.487 14.52C81.487 13.704 81.679 13.024 82.063 12.48C82.463 11.92 83.007 11.504 83.695 11.232C84.399 10.944 85.199 10.8 86.095 10.8H89.359V10.128C89.359 9.568 89.183 9.112 88.831 8.76C88.479 8.392 87.919 8.208 87.151 8.208C86.399 8.208 85.839 8.384 85.471 8.736C85.103 9.072 84.863 9.512 84.751 10.056L81.967 9.12C82.159 8.512 82.463 7.96 82.879 7.464C83.311 6.952 83.879 6.544 84.583 6.24C85.303 5.92 86.175 5.76 87.199 5.76C88.767 5.76 90.007 6.152 90.919 6.936C91.831 7.72 92.287 8.856 92.287 10.344V14.784C92.287 15.264 92.511 15.504 92.959 15.504H93.919V18H91.903C91.311 18 90.823 17.856 90.439 17.568C90.055 17.28 89.863 16.896 89.863 16.416V16.392H89.407C89.343 16.584 89.199 16.84 88.975 17.16C88.751 17.464 88.399 17.736 87.919 17.976C87.439 18.216 86.783 18.336 85.951 18.336ZM86.479 15.888C87.327 15.888 88.015 15.656 88.543 15.192C89.087 14.712 89.359 14.08 89.359 13.296V13.056H86.311C85.751 13.056 85.311 13.176 84.991 13.416C84.671 13.656 84.511 13.992 84.511 14.424C84.511 14.856 84.679 15.208 85.015 15.48C85.351 15.752 85.839 15.888 86.479 15.888ZM98.53 18V6.096H101.506V7.44H101.938C102.114 6.96 102.402 6.608 102.802 6.384C103.218 6.16 103.698 6.048 104.242 6.048H105.682V8.736H104.194C103.426 8.736 102.794 8.944 102.298 9.36C101.802 9.76 101.554 10.384 101.554 11.232V18H98.53Z" fill="#222222"/>
<path d="M118.843 18V1.2H125.755C126.811 1.2 127.739 1.416 128.539 1.848C129.355 2.264 129.987 2.856 130.435 3.624C130.899 4.392 131.131 5.304 131.131 6.36V6.696C131.131 7.736 130.891 8.648 130.411 9.432C129.947 10.2 129.307 10.8 128.491 11.232C127.691 11.648 126.779 11.856 125.755 11.856H122.011V18H118.843ZM122.011 8.976H125.443C126.195 8.976 126.803 8.768 127.267 8.352C127.731 7.936 127.963 7.368 127.963 6.648V6.408C127.963 5.688 127.731 5.12 127.267 4.704C126.803 4.288 126.195 4.08 125.443 4.08H122.011V8.976ZM135.824 18V6.096H138.8V7.44H139.232C139.408 6.96 139.696 6.608 140.096 6.384C140.512 6.16 140.992 6.048 141.536 6.048H142.976V8.736H141.488C140.72 8.736 140.088 8.944 139.592 9.36C139.096 9.76 138.848 10.384 138.848 11.232V18H135.824ZM152.981 18.336C151.797 18.336 150.733 18.096 149.789 17.616C148.845 17.136 148.101 16.44 147.557 15.528C147.013 14.616 146.741 13.52 146.741 12.24V11.856C146.741 10.576 147.013 9.48 147.557 8.568C148.101 7.656 148.845 6.96 149.789 6.48C150.733 6 151.797 5.76 152.981 5.76C154.165 5.76 155.229 6 156.173 6.48C157.117 6.96 157.861 7.656 158.405 8.568C158.949 9.48 159.221 10.576 159.221 11.856V12.24C159.221 13.52 158.949 14.616 158.405 15.528C157.861 16.44 157.117 17.136 156.173 17.616C155.229 18.096 154.165 18.336 152.981 18.336ZM152.981 15.648C153.909 15.648 154.677 15.352 155.285 14.76C155.893 14.152 156.197 13.288 156.197 12.168V11.928C156.197 10.808 155.893 9.952 155.285 9.36C154.693 8.752 153.925 8.448 152.981 8.448C152.053 8.448 151.285 8.752 150.677 9.36C150.069 9.952 149.765 10.808 149.765 11.928V12.168C149.765 13.288 150.069 14.152 150.677 14.76C151.285 15.352 152.053 15.648 152.981 15.648ZM162.205 22.8V20.208H163.789C164.237 20.208 164.461 19.968 164.461 19.488V6.096L167.485 6.096V20.112C167.485 20.928 167.245 21.576 166.765 22.056C166.285 22.552 165.645 22.8 164.845 22.8H162.205ZM165.973 4.704C165.429 4.704 164.965 4.528 164.581 4.176C164.213 3.824 164.029 3.36 164.029 2.784C164.029 2.208 164.213 1.744 164.581 1.392C164.965 1.04 165.429 0.863999 165.973 0.863999C166.533 0.863999 166.997 1.04 167.365 1.392C167.733 1.744 167.917 2.208 167.917 2.784C167.917 3.36 167.733 3.824 167.365 4.176C166.997 4.528 166.533 4.704 165.973 4.704ZM178.659 18.336C177.475 18.336 176.427 18.088 175.515 17.592C174.619 17.08 173.915 16.368 173.403 15.456C172.907 14.528 172.659 13.44 172.659 12.192V11.904C172.659 10.656 172.907 9.576 173.403 8.664C173.899 7.736 174.595 7.024 175.491 6.528C176.387 6.016 177.427 5.76 178.611 5.76C179.779 5.76 180.795 6.024 181.659 6.552C182.523 7.064 183.195 7.784 183.675 8.712C184.155 9.624 184.395 10.688 184.395 11.904V12.936L175.731 12.936C175.763 13.752 176.067 14.416 176.643 14.928C177.219 15.44 177.923 15.696 178.755 15.696C179.603 15.696 180.227 15.512 180.627 15.144C181.027 14.776 181.331 14.368 181.539 13.92L184.011 15.216C183.787 15.632 183.459 16.088 183.027 16.584C182.611 17.064 182.051 17.48 181.347 17.832C180.643 18.168 179.747 18.336 178.659 18.336ZM175.755 10.68H181.323C181.259 9.992 180.979 9.44 180.483 9.024C180.003 8.608 179.371 8.4 178.587 8.4C177.771 8.4 177.123 8.608 176.643 9.024C176.163 9.44 175.867 9.992 175.755 10.68ZM195.078 18.336C193.926 18.336 192.878 18.096 191.934 17.616C191.006 17.136 190.27 16.44 189.726 15.528C189.182 14.616 188.91 13.512 188.91 12.216V11.88C188.91 10.584 189.182 9.48 189.726 8.568C190.27 7.656 191.006 6.96 191.934 6.48C192.878 6 193.926 5.76 195.078 5.76C196.214 5.76 197.19 5.96 198.006 6.36C198.822 6.76 199.478 7.312 199.974 8.016C200.486 8.704 200.822 9.488 200.982 10.368L198.054 10.992C197.99 10.512 197.846 10.08 197.622 9.696C197.398 9.312 197.078 9.008 196.662 8.784C196.262 8.56 195.758 8.448 195.15 8.448C194.542 8.448 193.99 8.584 193.494 8.856C193.014 9.112 192.63 9.504 192.342 10.032C192.07 10.544 191.934 11.176 191.934 11.928V12.168C191.934 12.92 192.07 13.56 192.342 14.088C192.63 14.6 193.014 14.992 193.494 15.264C193.99 15.52 194.542 15.648 195.15 15.648C196.062 15.648 196.75 15.416 197.214 14.952C197.694 14.472 197.998 13.848 198.126 13.08L201.054 13.776C200.846 14.624 200.486 15.4 199.974 16.104C199.478 16.792 198.822 17.336 198.006 17.736C197.19 18.136 196.214 18.336 195.078 18.336ZM210.11 18C209.326 18 208.686 17.76 208.19 17.28C207.71 16.784 207.47 16.128 207.47 15.312V8.592H204.494V6.096H207.47V2.4H210.494V6.096H213.758V8.592H210.494V14.784C210.494 15.264 210.718 15.504 211.166 15.504H213.47V18H210.11Z" fill="#49A6E9"/>
</g>
<defs>
<filter id="filter0_d_1_2" x="0.000366211" y="0.864014" width="217.758" height="29.936" filterUnits="userSpaceOnUse" color-interpolation-filters="sRGB">
<feFlood flood-opacity="0" result="BackgroundImageFix"/>
<feColorMatrix in="SourceAlpha" type="matrix" values="0 0 0 0 0 0 0 0 0 0 0 0 0 0 0 0 0 0 127 0" result="hardAlpha"/>
<feOffset dy="4"/>
<feGaussianBlur stdDeviation="2"/>
<feComposite in2="hardAlpha" operator="out"/>
<feColorMatrix type="matrix" values="0 0 0 0 0 0 0 0 0 0 0 0 0 0 0 0 0 0 0.25 0"/>
<feBlend mode="normal" in2="BackgroundImageFix" result="effect1_dropShadow_1_2"/>
<feBlend mode="normal" in="SourceGraphic" in2="effect1_dropShadow_1_2" result="shape"/>
</filter>
</defs>
</svg>
